<svg viewBox="0 0 110 22" fill="none" xmlns="http://www.w3.org/2000/svg">
<path d="M4.25 18.4875C4.25 18.7208 4.28333 18.8667 4.35 18.925C4.425 18.975 4.58333 19 4.825 19H12.4C12.625 19 12.8 18.975 12.925 18.925C13.0583 18.875 13.125 18.725 13.125 18.475V18.2375C13.125 17.9792 13.1 17.8125 13.05 17.7375C13 17.6625 12.85 17.625 12.6 17.625H10.55C10.2417 17.625 10.05 17.5875 9.975 17.5125C9.90833 17.4292 9.875 17.2292 9.875 16.9125V2.0375C9.875 1.8125 9.9 1.66667 9.95 1.6C10 1.53333 10.1333 1.5 10.35 1.5H11.625C12.7083 1.5 13.55 1.6375 14.15 1.9125C14.7583 2.1875 15.1875 2.65417 15.4375 3.3125C15.6958 3.97083 15.8375 4.87917 15.8625 6.0375C15.8708 6.2375 15.8958 6.3875 15.9375 6.4875C15.9792 6.57917 16.1167 6.625 16.35 6.625H16.65C16.8417 6.625 16.9667 6.60833 17.025 6.575C17.0917 6.53333 17.125 6.42083 17.125 6.2375V0.837499C17.125 0.587499 17.0958 0.429166 17.0375 0.362499C16.9875 0.287499 16.8417 0.249999 16.6 0.249999H0.85C0.566667 0.249999 0.395833 0.287499 0.3375 0.362499C0.279167 0.437499 0.25 0.620832 0.25 0.9125V5.9875C0.25 6.17083 0.266667 6.325 0.3 6.45C0.341667 6.56667 0.466667 6.625 0.675 6.625H1.025C1.24167 6.625 1.37083 6.5875 1.4125 6.5125C1.4625 6.4375 1.49167 6.30417 1.5 6.1125C1.525 4.9375 1.6625 4.01667 1.9125 3.35C2.1625 2.675 2.59167 2.2 3.2 1.925C3.80833 1.64167 4.65833 1.5 5.75 1.5H6.95C7.18333 1.5 7.33333 1.53333 7.4 1.6C7.46667 1.66667 7.5 1.82083 7.5 2.0625V16.9375C7.5 17.2458 7.4625 17.4375 7.3875 17.5125C7.3125 17.5875 7.125 17.625 6.825 17.625H4.775C4.59167 17.625 4.45833 17.65 4.375 17.7C4.29167 17.7417 4.25 17.8625 4.25 18.0625V18.4875ZM21.8098 17.647C21.8098 18.109 21.9711 18.4683 22.2938 18.725C22.6201 18.9817 23.0271 19.11 23.5148 19.11C23.9034 19.11 24.2114 19.0623 24.4388 18.967C24.6661 18.868 24.8384 18.7562 24.9558 18.6315C25.0731 18.5068 25.1611 18.4042 25.2198 18.3235C25.2711 18.2538 25.3059 18.219 25.3243 18.219C25.3463 18.219 25.3628 18.252 25.3738 18.318C25.3884 18.406 25.4178 18.5123 25.4618 18.637C25.5094 18.7617 25.5993 18.8717 25.7313 18.967C25.8669 19.0623 26.0723 19.11 26.3473 19.11H26.3528C26.5031 19.11 26.6479 19.0843 26.7873 19.033C26.9303 18.9817 27.0623 18.9028 27.1833 18.7965C27.3079 18.6902 27.4124 18.5563 27.4968 18.395C27.5224 18.3363 27.5114 18.2923 27.4638 18.263L27.2658 18.142C27.2181 18.1053 27.1759 18.1182 27.1393 18.1805C27.0439 18.3308 26.9523 18.428 26.8643 18.472C26.7763 18.516 26.6938 18.538 26.6168 18.538C26.5398 18.538 26.4719 18.5123 26.4133 18.461C26.3583 18.4097 26.3308 18.329 26.3308 18.219V14.908C26.3308 14.611 26.2831 14.3305 26.1878 14.0665C26.0961 13.7988 25.9164 13.5825 25.6488 13.4175C25.3848 13.2525 24.9961 13.17 24.4828 13.17C24.2041 13.17 23.9254 13.2048 23.6468 13.2745C23.3718 13.3405 23.1206 13.4377 22.8933 13.566C22.6659 13.6943 22.4826 13.852 22.3433 14.039C22.2076 14.226 22.1398 14.4387 22.1398 14.677C22.1398 14.919 22.2058 15.0858 22.3378 15.1775C22.4698 15.2692 22.6201 15.315 22.7888 15.315C22.9758 15.315 23.1224 15.2563 23.2288 15.139C23.3388 15.018 23.3938 14.864 23.3938 14.677C23.3938 14.534 23.3681 14.435 23.3168 14.38C23.2654 14.325 23.2141 14.2828 23.1628 14.2535C23.1114 14.2205 23.0858 14.171 23.0858 14.105C23.0858 14.0317 23.1426 13.962 23.2563 13.896C23.3699 13.83 23.5166 13.7768 23.6963 13.7365C23.8759 13.6962 24.0648 13.676 24.2628 13.676C24.5561 13.676 24.7798 13.7328 24.9338 13.8465C25.0914 13.9565 25.1978 14.1087 25.2528 14.303C25.3114 14.4973 25.3408 14.7173 25.3408 14.963V15.568C25.3408 15.634 25.3316 15.6743 25.3133 15.689C25.2986 15.7037 25.2601 15.711 25.1978 15.711H24.6588C24.0281 15.711 23.5019 15.8008 23.0803 15.9805C22.6586 16.1602 22.3414 16.3967 22.1288 16.69C21.9161 16.9833 21.8098 17.3023 21.8098 17.647ZM22.9318 17.482C22.9318 17.1997 22.9868 16.9577 23.0968 16.756C23.2068 16.5543 23.3883 16.4003 23.6413 16.294C23.8943 16.184 24.2334 16.129 24.6588 16.129H25.2308C25.3041 16.129 25.3408 16.1657 25.3408 16.239V16.899C25.3408 17.3977 25.2124 17.7882 24.9558 18.0705C24.6991 18.3528 24.3838 18.494 24.0098 18.494C23.7348 18.494 23.4854 18.417 23.2618 18.263C23.0418 18.109 22.9318 17.8487 22.9318 17.482ZM32.8501 14.9905C32.8684 15.0455 32.8831 15.0858 32.8941 15.1115C32.9087 15.1372 32.9546 15.15 33.0316 15.15H33.3396C33.4019 15.15 33.4441 15.1427 33.4661 15.128C33.4881 15.1097 33.4991 15.0712 33.4991 15.0125V13.324C33.4991 13.2213 33.4514 13.17 33.3561 13.17H33.1086C33.0389 13.17 32.9931 13.1773 32.9711 13.192C32.9491 13.2067 32.9289 13.2397 32.9106 13.291L32.7676 13.7255C32.7382 13.8245 32.7162 13.8667 32.7016 13.852C32.6906 13.8373 32.6557 13.8007 32.5971 13.742C32.4504 13.5917 32.2506 13.456 31.9976 13.335C31.7446 13.2103 31.4384 13.148 31.0791 13.148C30.7674 13.148 30.4814 13.2122 30.2211 13.3405C29.9644 13.4652 29.7591 13.6485 29.6051 13.8905C29.4511 14.1288 29.3741 14.4203 29.3741 14.765C29.3741 15.15 29.4566 15.4562 29.6216 15.6835C29.7866 15.9108 29.9974 16.0868 30.2541 16.2115C30.5144 16.3362 30.7894 16.437 31.0791 16.514C31.3687 16.5873 31.6419 16.6643 31.8986 16.745C32.1589 16.822 32.3716 16.9283 32.5366 17.064C32.7016 17.1997 32.7841 17.394 32.7841 17.647C32.7841 17.9257 32.6796 18.1475 32.4706 18.3125C32.2652 18.4775 31.9701 18.56 31.5851 18.56C31.2807 18.56 31.0167 18.5123 30.7931 18.417C30.5694 18.3217 30.3806 18.1768 30.2266 17.9825C30.0726 17.7882 29.9479 17.5425 29.8526 17.2455C29.8379 17.2015 29.8196 17.1667 29.7976 17.141C29.7792 17.1117 29.7389 17.097 29.6766 17.097H29.3411C29.2787 17.097 29.2366 17.1098 29.2146 17.1355C29.1962 17.1575 29.1871 17.2015 29.1871 17.2675V18.9615C29.1871 19.0165 29.1962 19.055 29.2146 19.077C29.2329 19.099 29.2696 19.11 29.3246 19.11H29.5776C29.6362 19.11 29.6802 19.0972 29.7096 19.0715C29.7426 19.0495 29.7664 19.0183 29.7811 18.978L29.9076 18.582C29.9332 18.5087 29.9626 18.4738 29.9956 18.4775C30.0286 18.4775 30.0744 18.5032 30.1331 18.5545C30.3017 18.7012 30.5236 18.835 30.7986 18.956C31.0772 19.0733 31.3944 19.132 31.7501 19.132C32.1057 19.132 32.4302 19.0623 32.7236 18.923C33.0206 18.78 33.2571 18.5747 33.4331 18.307C33.6091 18.0357 33.6971 17.7093 33.6971 17.328C33.6971 16.965 33.6127 16.6772 33.4441 16.4645C33.2791 16.2482 33.0646 16.0813 32.8006 15.964C32.5402 15.843 32.2616 15.744 31.9646 15.667C31.6712 15.5863 31.3926 15.5038 31.1286 15.4195C30.8646 15.3352 30.6482 15.2215 30.4796 15.0785C30.3146 14.9355 30.2321 14.7357 30.2321 14.479C30.2321 14.248 30.3109 14.0628 30.4686 13.9235C30.6299 13.7805 30.8554 13.709 31.1451 13.709C31.5154 13.709 31.8582 13.8208 32.1736 14.0445C32.4926 14.2682 32.7181 14.5835 32.8501 14.9905ZM39.2238 17.9275C39.2421 17.8798 39.2421 17.8468 39.2238 17.8285C39.2091 17.8102 39.1798 17.7937 39.1358 17.779L38.9598 17.7185C38.9011 17.6965 38.8608 17.691 38.8388 17.702C38.8205 17.713 38.7985 17.746 38.7728 17.801C38.6775 18.01 38.5656 18.1713 38.4373 18.285C38.3126 18.395 38.1715 18.45 38.0138 18.45C37.8671 18.45 37.7498 18.4005 37.6618 18.3015C37.5738 18.2025 37.5298 18.043 37.5298 17.823V14.0665C37.5298 13.9822 37.5481 13.9308 37.5848 13.9125C37.6215 13.8942 37.6783 13.885 37.7553 13.885H38.9653C39.0313 13.885 39.0771 13.8795 39.1028 13.8685C39.1321 13.8538 39.1468 13.8135 39.1468 13.7475V13.4615C39.1468 13.3845 39.134 13.335 39.1083 13.313C39.0863 13.291 39.0386 13.28 38.9653 13.28H37.7443C37.6746 13.28 37.6215 13.2708 37.5848 13.2525C37.5481 13.2342 37.5298 13.1865 37.5298 13.1095V11.8995C37.5298 11.7932 37.4821 11.74 37.3868 11.74H37.0898C37.0091 11.74 36.9596 11.751 36.9413 11.773C36.923 11.795 36.9065 11.8372 36.8918 11.8995C36.8185 12.2185 36.7506 12.4715 36.6883 12.6585C36.626 12.8455 36.5545 12.983 36.4738 13.071C36.3931 13.159 36.2905 13.2158 36.1658 13.2415C36.0411 13.2672 35.8798 13.28 35.6818 13.28C35.6121 13.28 35.5663 13.2873 35.5443 13.302C35.526 13.313 35.5168 13.3533 35.5168 13.423V13.72C35.5168 13.7933 35.5296 13.8392 35.5553 13.8575C35.581 13.8758 35.6323 13.885 35.7093 13.885H36.3638C36.4298 13.885 36.4756 13.8997 36.5013 13.929C36.527 13.9583 36.5398 14.006 36.5398 14.072V18.054C36.5398 18.3547 36.626 18.6095 36.7983 18.8185C36.9706 19.0275 37.2548 19.132 37.6508 19.132C37.9368 19.132 38.1825 19.0788 38.3878 18.9725C38.5968 18.8625 38.7691 18.7158 38.9048 18.5325C39.0441 18.3492 39.1505 18.1475 39.2238 17.9275ZM41.847 11.3C41.847 11.4797 41.9111 11.6355 42.0395 11.7675C42.1715 11.8958 42.3273 11.96 42.507 11.96C42.6903 11.96 42.8461 11.8958 42.9745 11.7675C43.1028 11.6355 43.167 11.4797 43.167 11.3C43.167 11.1167 43.1028 10.9608 42.9745 10.8325C42.8461 10.7042 42.6903 10.64 42.507 10.64C42.3273 10.64 42.1715 10.7042 42.0395 10.8325C41.9111 10.9608 41.847 11.1167 41.847 11.3ZM41.935 13.885C42.023 13.885 42.067 13.929 42.067 14.017V18.241C42.067 18.2997 42.0615 18.34 42.0505 18.362C42.0395 18.384 42.0028 18.395 41.9405 18.395H41.2585C41.1925 18.395 41.1448 18.4042 41.1155 18.4225C41.0898 18.4408 41.077 18.4867 41.077 18.56V18.868C41.077 18.9267 41.0898 18.9633 41.1155 18.978C41.1411 18.9927 41.1851 19 41.2475 19H43.9425C43.9938 19 44.0231 18.9908 44.0305 18.9725C44.0415 18.9542 44.047 18.9193 44.047 18.868V18.505C44.047 18.4537 44.0378 18.4225 44.0195 18.4115C44.0011 18.4005 43.9663 18.395 43.915 18.395H43.1725C43.1285 18.395 43.0973 18.3858 43.079 18.3675C43.0643 18.3455 43.057 18.3107 43.057 18.263V13.3955C43.057 13.3478 43.0496 13.3167 43.035 13.302C43.024 13.2873 42.9965 13.28 42.9525 13.28H41.209C41.121 13.28 41.077 13.3277 41.077 13.423V13.753C41.077 13.808 41.0825 13.8447 41.0935 13.863C41.1045 13.8777 41.1375 13.885 41.1925 13.885H41.935ZM46.8248 13.885C46.8688 13.885 46.9018 13.8905 46.9238 13.9015C46.9458 13.9125 46.9568 13.9382 46.9568 13.9785V18.241C46.9568 18.3107 46.944 18.3547 46.9183 18.373C46.8926 18.3877 46.8431 18.395 46.7698 18.395H46.1648C46.0951 18.395 46.0438 18.406 46.0108 18.428C45.9815 18.4463 45.9668 18.494 45.9668 18.571V18.824C45.9668 18.8937 45.976 18.9413 45.9943 18.967C46.0126 18.989 46.0548 19 46.1208 19H48.7828C48.8451 19 48.8855 18.989 48.9038 18.967C48.9258 18.945 48.9368 18.901 48.9368 18.835V18.582C48.9368 18.5013 48.9221 18.45 48.8928 18.428C48.8671 18.406 48.8176 18.395 48.7443 18.395H48.1778C48.0935 18.395 48.033 18.3785 47.9963 18.3455C47.9633 18.3125 47.9468 18.2538 47.9468 18.1695V15.887C47.9468 15.5093 48.0183 15.1628 48.1613 14.8475C48.3043 14.5285 48.5078 14.2737 48.7718 14.083C49.0358 13.8923 49.3475 13.797 49.7068 13.797C50.0698 13.797 50.3338 13.907 50.4988 14.127C50.6675 14.3433 50.7518 14.655 50.7518 15.062V18.1805C50.7518 18.2758 50.7371 18.3363 50.7078 18.362C50.6785 18.384 50.6198 18.395 50.5318 18.395H49.8993C49.8406 18.395 49.8021 18.406 49.7838 18.428C49.7691 18.45 49.7618 18.4922 49.7618 18.5545V18.8295C49.7618 18.8882 49.7673 18.9322 49.7783 18.9615C49.7893 18.9872 49.8241 19 49.8828 19H52.5613C52.6236 19 52.6676 18.9945 52.6933 18.9835C52.719 18.9725 52.7318 18.9377 52.7318 18.879V18.56C52.7318 18.4977 52.7226 18.4555 52.7043 18.4335C52.6896 18.4078 52.6511 18.395 52.5888 18.395H51.9398C51.8445 18.395 51.7876 18.3785 51.7693 18.3455C51.751 18.3088 51.7418 18.2428 51.7418 18.1475V14.941C51.7418 14.5487 51.6905 14.2223 51.5878 13.962C51.4851 13.698 51.3036 13.5 51.0433 13.368C50.7866 13.236 50.4255 13.17 49.9598 13.17C49.4831 13.17 49.0908 13.2708 48.7828 13.4725C48.4748 13.6705 48.2328 13.9162 48.0568 14.2095C48.0201 14.2682 47.9926 14.303 47.9743 14.314C47.956 14.325 47.9468 14.259 47.9468 14.116V13.4725C47.9468 13.4212 47.934 13.3772 47.9083 13.3405C47.8826 13.3002 47.8386 13.28 47.7763 13.28H46.0713C46.031 13.28 46.0035 13.291 45.9888 13.313C45.9741 13.3313 45.9668 13.3625 45.9668 13.4065V13.7475C45.9668 13.7952 45.9741 13.83 45.9888 13.852C46.0035 13.874 46.0346 13.885 46.0823 13.885H46.8248ZM55.7082 15.205C55.7082 14.9337 55.7431 14.677 55.8127 14.435C55.8824 14.1893 55.9997 13.9913 56.1647 13.841C56.3334 13.687 56.5626 13.61 56.8522 13.61C57.1419 13.61 57.3692 13.687 57.5342 13.841C57.7029 13.9913 57.8221 14.1893 57.8917 14.435C57.9614 14.677 57.9962 14.9337 57.9962 15.205C57.9962 15.4763 57.9614 15.7348 57.8917 15.9805C57.8221 16.2225 57.7029 16.4205 57.5342 16.5745C57.3692 16.7248 57.1419 16.8 56.8522 16.8C56.5626 16.8 56.3334 16.7248 56.1647 16.5745C55.9997 16.4205 55.8824 16.2225 55.8127 15.9805C55.7431 15.7348 55.7082 15.4763 55.7082 15.205ZM54.6632 15.205C54.6632 15.579 54.7402 15.9145 54.8942 16.2115C55.0519 16.5048 55.2737 16.7377 55.5597 16.91C55.6404 16.9577 55.6862 16.987 55.6972 16.998C55.7119 17.009 55.6697 17.0347 55.5707 17.075C55.3141 17.1887 55.1106 17.3317 54.9602 17.504C54.8136 17.6763 54.7402 17.867 54.7402 18.076C54.7402 18.307 54.7861 18.4903 54.8777 18.626C54.9731 18.758 55.0996 18.8588 55.2572 18.9285C55.3306 18.9615 55.3727 18.9817 55.3837 18.989C55.3947 18.9927 55.3636 19.0147 55.2902 19.055C55.0666 19.1797 54.8594 19.3648 54.6687 19.6105C54.4817 19.8562 54.3882 20.1477 54.3882 20.485C54.3882 20.9507 54.6229 21.2953 55.0922 21.519C55.5616 21.7463 56.1886 21.86 56.9732 21.86C57.5599 21.86 58.0659 21.7812 58.4912 21.6235C58.9202 21.4658 59.2502 21.2403 59.4812 20.947C59.7159 20.6573 59.8332 20.309 59.8332 19.902C59.8332 19.528 59.7746 19.2292 59.6572 19.0055C59.5436 18.7818 59.3896 18.615 59.1952 18.505C59.0009 18.395 58.7809 18.3217 58.5352 18.285C58.2896 18.2483 58.0366 18.23 57.7762 18.23C57.6992 18.23 57.6057 18.2318 57.4957 18.2355C57.3857 18.2355 57.2702 18.2355 57.1492 18.2355C57.0319 18.2355 56.9201 18.2373 56.8137 18.241C56.7111 18.241 56.6249 18.241 56.5552 18.241C56.2546 18.241 56.0016 18.2245 55.7962 18.1915C55.5909 18.1548 55.4882 18.0357 55.4882 17.834C55.4882 17.7277 55.5506 17.6213 55.6752 17.515C55.8036 17.4087 55.9521 17.317 56.1207 17.24C56.1757 17.2143 56.2234 17.1997 56.2637 17.196C56.3041 17.1923 56.3591 17.196 56.4287 17.207C56.4984 17.218 56.5681 17.2272 56.6377 17.2345C56.7074 17.2382 56.7789 17.24 56.8522 17.24C57.2959 17.24 57.6809 17.1557 58.0072 16.987C58.3372 16.8147 58.5921 16.5763 58.7717 16.272C58.9514 15.964 59.0412 15.6083 59.0412 15.205C59.0412 14.82 58.9551 14.4717 58.7827 14.16C58.7644 14.127 58.7589 14.1032 58.7662 14.0885C58.7736 14.0702 58.7864 14.0463 58.8047 14.017C58.9184 13.852 59.0412 13.7383 59.1732 13.676C59.3089 13.61 59.4409 13.577 59.5692 13.577C59.7086 13.577 59.7782 13.632 59.7782 13.742C59.7782 13.8007 59.7599 13.8502 59.7232 13.8905C59.6902 13.9272 59.6554 13.9748 59.6187 14.0335C59.5857 14.0885 59.5692 14.1747 59.5692 14.292C59.5692 14.4277 59.6187 14.5432 59.7177 14.6385C59.8167 14.7302 59.9432 14.776 60.0972 14.776C60.2622 14.776 60.3997 14.7228 60.5097 14.6165C60.6234 14.5065 60.6802 14.358 60.6802 14.171C60.6802 13.9803 60.6381 13.8098 60.5537 13.6595C60.4731 13.5092 60.3484 13.39 60.1797 13.302C60.0111 13.214 59.7966 13.17 59.5362 13.17C59.4006 13.17 59.2411 13.2122 59.0577 13.2965C58.8744 13.3772 58.7021 13.5092 58.5407 13.6925C58.5114 13.7255 58.4912 13.7438 58.4802 13.7475C58.4729 13.7512 58.4527 13.7383 58.4197 13.709C58.2291 13.5367 58.0017 13.4047 57.7377 13.313C57.4737 13.2177 57.1786 13.17 56.8522 13.17C56.4086 13.17 56.0217 13.2562 55.6917 13.4285C55.3654 13.5972 55.1124 13.8355 54.9327 14.1435C54.7531 14.4478 54.6632 14.8017 54.6632 15.205ZM59.0522 20.177C59.0522 20.441 58.9569 20.6592 58.7662 20.8315C58.5792 21.0038 58.3391 21.1322 58.0457 21.2165C57.7561 21.3008 57.4572 21.343 57.1492 21.343C56.5662 21.343 56.1336 21.233 55.8512 21.013C55.5726 20.793 55.4332 20.496 55.4332 20.122C55.4332 20.001 55.4479 19.847 55.4772 19.66C55.5066 19.473 55.6019 19.2952 55.7632 19.1265C55.7852 19.1008 55.8036 19.0843 55.8182 19.077C55.8366 19.0697 55.8677 19.0697 55.9117 19.077C56.0401 19.088 56.1702 19.0935 56.3022 19.0935C56.4379 19.0972 56.5736 19.099 56.7092 19.099C56.7899 19.099 56.9146 19.099 57.0832 19.099C57.2556 19.099 57.4261 19.099 57.5947 19.099C57.7634 19.099 57.8862 19.099 57.9632 19.099C58.3226 19.099 58.5939 19.2035 58.7772 19.4125C58.9606 19.6252 59.0522 19.88 59.0522 20.177ZM67.1964 18.4875C67.1964 18.7208 67.2298 18.8667 67.2964 18.925C67.3714 18.975 67.5298 19 67.7714 19H75.3464C75.5714 19 75.7464 18.975 75.8714 18.925C76.0048 18.875 76.0714 18.725 76.0714 18.475V18.2375C76.0714 17.9792 76.0464 17.8125 75.9964 17.7375C75.9464 17.6625 75.7964 17.625 75.5464 17.625H73.4964C73.1881 17.625 72.9964 17.5875 72.9214 17.5125C72.8548 17.4292 72.8214 17.2292 72.8214 16.9125V2.0375C72.8214 1.8125 72.8464 1.66667 72.8964 1.6C72.9464 1.53333 73.0798 1.5 73.2964 1.5H74.5714C75.6548 1.5 76.4964 1.6375 77.0964 1.9125C77.7048 2.1875 78.1339 2.65417 78.3839 3.3125C78.6423 3.97083 78.7839 4.87917 78.8089 6.0375C78.8173 6.2375 78.8423 6.3875 78.8839 6.4875C78.9256 6.57917 79.0631 6.625 79.2964 6.625H79.5964C79.7881 6.625 79.9131 6.60833 79.9714 6.575C80.0381 6.53333 80.0714 6.42083 80.0714 6.2375V0.837499C80.0714 0.587499 80.0423 0.429166 79.9839 0.362499C79.9339 0.287499 79.7881 0.249999 79.5464 0.249999H63.7964C63.5131 0.249999 63.3423 0.287499 63.2839 0.362499C63.2256 0.437499 63.1964 0.620832 63.1964 0.9125V5.9875C63.1964 6.17083 63.2131 6.325 63.2464 6.45C63.2881 6.56667 63.4131 6.625 63.6214 6.625H63.9714C64.1881 6.625 64.3173 6.5875 64.3589 6.5125C64.4089 6.4375 64.4381 6.30417 64.4464 6.1125C64.4714 4.9375 64.6089 4.01667 64.8589 3.35C65.1089 2.675 65.5381 2.2 66.1464 1.925C66.7548 1.64167 67.6048 1.5 68.6964 1.5H69.8964C70.1298 1.5 70.2798 1.53333 70.3464 1.6C70.4131 1.66667 70.4464 1.82083 70.4464 2.0625V16.9375C70.4464 17.2458 70.4089 17.4375 70.3339 17.5125C70.2589 17.5875 70.0714 17.625 69.7714 17.625H67.7214C67.5381 17.625 67.4048 17.65 67.3214 17.7C67.2381 17.7417 67.1964 17.8625 67.1964 18.0625V18.4875ZM84.7562 17.647C84.7562 18.109 84.9175 18.4683 85.2402 18.725C85.5665 18.9817 85.9735 19.11 86.4612 19.11C86.8499 19.11 87.1579 19.0623 87.3852 18.967C87.6125 18.868 87.7849 18.7562 87.9022 18.6315C88.0195 18.5068 88.1075 18.4042 88.1662 18.3235C88.2175 18.2538 88.2524 18.219 88.2707 18.219C88.2927 18.219 88.3092 18.252 88.3202 18.318C88.3349 18.406 88.3642 18.5123 88.4082 18.637C88.4559 18.7617 88.5457 18.8717 88.6777 18.967C88.8134 19.0623 89.0187 19.11 89.2937 19.11H89.2992C89.4495 19.11 89.5944 19.0843 89.7337 19.033C89.8767 18.9817 90.0087 18.9028 90.1297 18.7965C90.2544 18.6902 90.3589 18.5563 90.4432 18.395C90.4689 18.3363 90.4579 18.2923 90.4102 18.263L90.2122 18.142C90.1645 18.1053 90.1224 18.1182 90.0857 18.1805C89.9904 18.3308 89.8987 18.428 89.8107 18.472C89.7227 18.516 89.6402 18.538 89.5632 18.538C89.4862 18.538 89.4184 18.5123 89.3597 18.461C89.3047 18.4097 89.2772 18.329 89.2772 18.219V14.908C89.2772 14.611 89.2295 14.3305 89.1342 14.0665C89.0425 13.7988 88.8629 13.5825 88.5952 13.4175C88.3312 13.2525 87.9425 13.17 87.4292 13.17C87.1505 13.17 86.8719 13.2048 86.5932 13.2745C86.3182 13.3405 86.067 13.4377 85.8397 13.566C85.6124 13.6943 85.429 13.852 85.2897 14.039C85.154 14.226 85.0862 14.4387 85.0862 14.677C85.0862 14.919 85.1522 15.0858 85.2842 15.1775C85.4162 15.2692 85.5665 15.315 85.7352 15.315C85.9222 15.315 86.0689 15.2563 86.1752 15.139C86.2852 15.018 86.3402 14.864 86.3402 14.677C86.3402 14.534 86.3145 14.435 86.2632 14.38C86.2119 14.325 86.1605 14.2828 86.1092 14.2535C86.0579 14.2205 86.0322 14.171 86.0322 14.105C86.0322 14.0317 86.089 13.962 86.2027 13.896C86.3164 13.83 86.463 13.7768 86.6427 13.7365C86.8224 13.6962 87.0112 13.676 87.2092 13.676C87.5025 13.676 87.7262 13.7328 87.8802 13.8465C88.0379 13.9565 88.1442 14.1087 88.1992 14.303C88.2579 14.4973 88.2872 14.7173 88.2872 14.963V15.568C88.2872 15.634 88.278 15.6743 88.2597 15.689C88.245 15.7037 88.2065 15.711 88.1442 15.711H87.6052C86.9745 15.711 86.4484 15.8008 86.0267 15.9805C85.605 16.1602 85.2879 16.3967 85.0752 16.69C84.8625 16.9833 84.7562 17.3023 84.7562 17.647ZM85.8782 17.482C85.8782 17.1997 85.9332 16.9577 86.0432 16.756C86.1532 16.5543 86.3347 16.4003 86.5877 16.294C86.8407 16.184 87.1799 16.129 87.6052 16.129H88.1772C88.2505 16.129 88.2872 16.1657 88.2872 16.239V16.899C88.2872 17.3977 88.1589 17.7882 87.9022 18.0705C87.6455 18.3528 87.3302 18.494 86.9562 18.494C86.6812 18.494 86.4319 18.417 86.2082 18.263C85.9882 18.109 85.8782 17.8487 85.8782 17.482ZM93.8385 16.14C93.8385 15.722 93.9045 15.3315 94.0365 14.9685C94.1685 14.6018 94.3555 14.3067 94.5975 14.083C94.8432 13.8557 95.1329 13.742 95.4665 13.742C95.7745 13.742 96.044 13.8557 96.275 14.083C96.506 14.3067 96.6857 14.6018 96.814 14.9685C96.9424 15.3315 97.0065 15.722 97.0065 16.14C97.0065 16.558 96.9424 16.9503 96.814 17.317C96.6857 17.68 96.506 17.9752 96.275 18.2025C96.044 18.4262 95.7745 18.538 95.4665 18.538C95.1329 18.538 94.8432 18.4262 94.5975 18.2025C94.3555 17.9752 94.1685 17.68 94.0365 17.317C93.9045 16.9503 93.8385 16.558 93.8385 16.14ZM91.952 11.025H92.7605C92.8192 11.025 92.8485 11.0617 92.8485 11.135V18.296C92.8485 18.3363 92.843 18.3638 92.832 18.3785C92.821 18.3895 92.7954 18.395 92.755 18.395H91.963C91.9264 18.395 91.8989 18.4005 91.8805 18.4115C91.8659 18.4225 91.8585 18.4463 91.8585 18.483V18.9065C91.8585 18.9505 91.864 18.978 91.875 18.989C91.8897 18.9963 91.919 19 91.963 19H93.701C93.7597 19 93.7964 18.9817 93.811 18.945C93.8294 18.9047 93.8385 18.857 93.8385 18.802V18.164C93.8385 18.032 93.844 17.9605 93.855 17.9495C93.866 17.9348 93.8899 17.9605 93.9265 18.0265C94.1099 18.3712 94.3482 18.6388 94.6415 18.8295C94.9385 19.0165 95.2795 19.11 95.6645 19.11C96.1009 19.11 96.5042 18.9927 96.8745 18.758C97.2449 18.5233 97.5419 18.1842 97.7655 17.7405C97.9929 17.2968 98.1065 16.7633 98.1065 16.14C98.1065 15.5167 97.9929 14.985 97.7655 14.545C97.5419 14.1013 97.2449 13.764 96.8745 13.533C96.5042 13.2983 96.1009 13.181 95.6645 13.181C95.2685 13.181 94.9202 13.2818 94.6195 13.4835C94.3189 13.6852 94.0769 13.9657 93.8935 14.325C93.8715 14.369 93.8569 14.3855 93.8495 14.3745C93.8422 14.3598 93.8385 14.3122 93.8385 14.2315V10.4915C93.8385 10.4622 93.8312 10.4438 93.8165 10.4365C93.8019 10.4255 93.7799 10.42 93.7505 10.42H91.919C91.8934 10.42 91.8769 10.4273 91.8695 10.442C91.8622 10.453 91.8585 10.4732 91.8585 10.5025V10.915C91.8585 10.9517 91.864 10.9792 91.875 10.9975C91.8897 11.0158 91.9154 11.025 91.952 11.025ZM100.735 11.025C100.82 11.025 100.875 11.036 100.9 11.058C100.926 11.08 100.939 11.1313 100.939 11.212V18.208C100.939 18.296 100.931 18.3492 100.917 18.3675C100.906 18.3858 100.856 18.395 100.768 18.395H100.086C100.02 18.395 99.9799 18.4097 99.9653 18.439C99.9543 18.4683 99.9488 18.516 99.9488 18.582V18.802C99.9488 18.89 99.9634 18.945 99.9928 18.967C100.026 18.989 100.083 19 100.163 19H102.66C102.756 19 102.822 18.989 102.858 18.967C102.899 18.945 102.919 18.8827 102.919 18.78V18.538C102.919 18.4793 102.906 18.4408 102.88 18.4225C102.858 18.4042 102.822 18.395 102.77 18.395H102.099C101.997 18.395 101.942 18.3785 101.934 18.3455C101.931 18.3125 101.929 18.2483 101.929 18.153V10.618C101.929 10.5227 101.91 10.4658 101.874 10.4475C101.841 10.4292 101.777 10.42 101.681 10.42H100.174C100.105 10.42 100.05 10.4292 100.009 10.4475C99.9689 10.4622 99.9488 10.508 99.9488 10.585V10.794C99.9488 10.871 99.9579 10.9297 99.9763 10.97C99.9946 11.0067 100.046 11.025 100.13 11.025H100.735ZM104.76 16.25C104.76 16.7633 104.857 17.2382 105.051 17.6745C105.249 18.1072 105.539 18.4555 105.92 18.7195C106.302 18.9798 106.769 19.11 107.323 19.11C107.789 19.11 108.185 19.0293 108.511 18.868C108.837 18.7067 109.103 18.4848 109.308 18.2025C109.514 17.9165 109.668 17.5865 109.77 17.2125C109.781 17.1722 109.78 17.1428 109.765 17.1245C109.75 17.1062 109.715 17.097 109.66 17.097H109.341C109.286 17.097 109.252 17.1098 109.237 17.1355C109.222 17.1575 109.208 17.1887 109.193 17.229C109.046 17.6323 108.828 17.9568 108.538 18.2025C108.252 18.4482 107.891 18.571 107.455 18.571C107.077 18.571 106.771 18.4665 106.536 18.2575C106.305 18.0448 106.137 17.7643 106.03 17.416C105.924 17.0677 105.871 16.6918 105.871 16.2885C105.871 16.2262 105.886 16.184 105.915 16.162C105.948 16.14 105.994 16.129 106.052 16.129H109.589C109.666 16.129 109.717 16.1217 109.743 16.107C109.772 16.0887 109.787 16.0428 109.787 15.9695C109.787 15.7092 109.761 15.447 109.71 15.183C109.659 14.9153 109.576 14.6623 109.462 14.424C109.349 14.182 109.198 13.9675 109.011 13.7805C108.828 13.5898 108.603 13.4413 108.335 13.335C108.071 13.225 107.759 13.17 107.4 13.17C106.81 13.17 106.318 13.3057 105.926 13.577C105.537 13.8447 105.246 14.2113 105.051 14.677C104.857 15.139 104.76 15.6633 104.76 16.25ZM106.047 15.656C105.981 15.656 105.939 15.6468 105.92 15.6285C105.902 15.6102 105.893 15.5735 105.893 15.5185C105.893 15.2288 105.948 14.941 106.058 14.655C106.168 14.369 106.335 14.1307 106.558 13.94C106.782 13.7493 107.063 13.654 107.4 13.654C107.624 13.654 107.816 13.7182 107.977 13.8465C108.139 13.9748 108.273 14.1398 108.379 14.3415C108.485 14.5395 108.564 14.7485 108.615 14.9685C108.667 15.1848 108.692 15.3847 108.692 15.568C108.692 15.6047 108.683 15.6285 108.665 15.6395C108.65 15.6505 108.606 15.656 108.533 15.656H106.047Z" fill="currentColor"/>
</svg>
