<svg viewBox="0 0 73 44" fill="none" xmlns="http://www.w3.org/2000/svg">
<path d="M14.2427 34.4875C14.2427 34.7208 14.276 34.8667 14.3427 34.925C14.4177 34.975 14.576 35 14.8177 35H22.3927C22.6177 35 22.7927 34.975 22.9177 34.925C23.051 34.875 23.1177 34.725 23.1177 34.475V34.2375C23.1177 33.9792 23.0927 33.8125 23.0427 33.7375C22.9927 33.6625 22.8427 33.625 22.5927 33.625H20.5427C20.2343 33.625 20.0427 33.5875 19.9677 33.5125C19.901 33.4292 19.8677 33.2292 19.8677 32.9125V18.0375C19.8677 17.8125 19.8927 17.6667 19.9427 17.6C19.9927 17.5333 20.126 17.5 20.3427 17.5H21.6177C22.701 17.5 23.5427 17.6375 24.1427 17.9125C24.751 18.1875 25.1802 18.6542 25.4302 19.3125C25.6885 19.9708 25.8302 20.8792 25.8552 22.0375C25.8635 22.2375 25.8885 22.3875 25.9302 22.4875C25.9718 22.5792 26.1093 22.625 26.3427 22.625H26.6427C26.8343 22.625 26.9593 22.6083 27.0177 22.575C27.0843 22.5333 27.1177 22.4208 27.1177 22.2375V16.8375C27.1177 16.5875 27.0885 16.4292 27.0302 16.3625C26.9802 16.2875 26.8343 16.25 26.5927 16.25H10.8427C10.5593 16.25 10.3885 16.2875 10.3302 16.3625C10.2718 16.4375 10.2427 16.6208 10.2427 16.9125V21.9875C10.2427 22.1708 10.2593 22.325 10.2927 22.45C10.3343 22.5667 10.4593 22.625 10.6677 22.625H11.0177C11.2343 22.625 11.3635 22.5875 11.4052 22.5125C11.4552 22.4375 11.4843 22.3042 11.4927 22.1125C11.5177 20.9375 11.6552 20.0167 11.9052 19.35C12.1552 18.675 12.5843 18.2 13.1927 17.925C13.801 17.6417 14.651 17.5 15.7427 17.5H16.9427C17.176 17.5 17.326 17.5333 17.3927 17.6C17.4593 17.6667 17.4927 17.8208 17.4927 18.0625V32.9375C17.4927 33.2458 17.4552 33.4375 17.3802 33.5125C17.3052 33.5875 17.1177 33.625 16.8177 33.625H14.7677C14.5843 33.625 14.451 33.65 14.3677 33.7C14.2843 33.7417 14.2427 33.8625 14.2427 34.0625V34.4875ZM46.8726 34.4875C46.8726 34.7208 46.9059 34.8667 46.9726 34.925C47.0476 34.975 47.2059 35 47.4476 35H55.0226C55.2476 35 55.4226 34.975 55.5476 34.925C55.6809 34.875 55.7476 34.725 55.7476 34.475V34.2375C55.7476 33.9792 55.7226 33.8125 55.6726 33.7375C55.6226 33.6625 55.4726 33.625 55.2226 33.625H53.1726C52.8642 33.625 52.6726 33.5875 52.5976 33.5125C52.5309 33.4292 52.4976 33.2292 52.4976 32.9125V18.0375C52.4976 17.8125 52.5226 17.6667 52.5726 17.6C52.6226 17.5333 52.7559 17.5 52.9726 17.5H54.2476C55.3309 17.5 56.1726 17.6375 56.7726 17.9125C57.3809 18.1875 57.8101 18.6542 58.0601 19.3125C58.3184 19.9708 58.4601 20.8792 58.4851 22.0375C58.4934 22.2375 58.5184 22.3875 58.5601 22.4875C58.6017 22.5792 58.7392 22.625 58.9726 22.625H59.2726C59.4642 22.625 59.5892 22.6083 59.6476 22.575C59.7142 22.5333 59.7476 22.4208 59.7476 22.2375V16.8375C59.7476 16.5875 59.7184 16.4292 59.6601 16.3625C59.6101 16.2875 59.4642 16.25 59.2226 16.25H43.4726C43.1892 16.25 43.0184 16.2875 42.9601 16.3625C42.9017 16.4375 42.8726 16.6208 42.8726 16.9125V21.9875C42.8726 22.1708 42.8892 22.325 42.9226 22.45C42.9642 22.5667 43.0892 22.625 43.2976 22.625H43.6476C43.8642 22.625 43.9934 22.5875 44.0351 22.5125C44.0851 22.4375 44.1142 22.3042 44.1226 22.1125C44.1476 20.9375 44.2851 20.0167 44.5351 19.35C44.7851 18.675 45.2142 18.2 45.8226 17.925C46.4309 17.6417 47.2809 17.5 48.3726 17.5H49.5726C49.8059 17.5 49.9559 17.5333 50.0226 17.6C50.0892 17.6667 50.1226 17.8208 50.1226 18.0625V32.9375C50.1226 33.2458 50.0851 33.4375 50.0101 33.5125C49.9351 33.5875 49.7476 33.625 49.4476 33.625H47.3976C47.2142 33.625 47.0809 33.65 46.9976 33.7C46.9142 33.7417 46.8726 33.8625 46.8726 34.0625V34.4875Z" fill="currentColor"/>
<path d="M42.5 11.77C42.5 12.19 42.6467 12.5167 42.94 12.75C43.2367 12.9833 43.6067 13.1 44.05 13.1C44.4033 13.1 44.6833 13.0567 44.89 12.97C45.0967 12.88 45.2533 12.7783 45.36 12.665C45.4667 12.5517 45.5467 12.4583 45.6 12.385C45.6467 12.3217 45.6783 12.29 45.695 12.29C45.715 12.29 45.73 12.32 45.74 12.38C45.7533 12.46 45.78 12.5567 45.82 12.67C45.8633 12.7833 45.945 12.8833 46.065 12.97C46.1883 13.0567 46.375 13.1 46.625 13.1H46.63C46.7667 13.1 46.8983 13.0767 47.025 13.03C47.155 12.9833 47.275 12.9117 47.385 12.815C47.4983 12.7183 47.5933 12.5967 47.67 12.45C47.6933 12.3967 47.6833 12.3567 47.64 12.33L47.46 12.22C47.4167 12.1867 47.3783 12.1983 47.345 12.255C47.2583 12.3917 47.175 12.48 47.095 12.52C47.015 12.56 46.94 12.58 46.87 12.58C46.8 12.58 46.7383 12.5567 46.685 12.51C46.635 12.4633 46.61 12.39 46.61 12.29V9.28C46.61 9.01 46.5667 8.755 46.48 8.515C46.3967 8.27167 46.2333 8.075 45.99 7.925C45.75 7.775 45.3967 7.7 44.93 7.7C44.6767 7.7 44.4233 7.73167 44.17 7.795C43.92 7.855 43.6917 7.94333 43.485 8.06C43.2783 8.17667 43.1117 8.32 42.985 8.49C42.8617 8.66 42.8 8.85333 42.8 9.07C42.8 9.29 42.86 9.44167 42.98 9.525C43.1 9.60833 43.2367 9.65 43.39 9.65C43.56 9.65 43.6933 9.59667 43.79 9.49C43.89 9.38 43.94 9.24 43.94 9.07C43.94 8.94 43.9167 8.85 43.87 8.8C43.8233 8.75 43.7767 8.71167 43.73 8.685C43.6833 8.655 43.66 8.61 43.66 8.55C43.66 8.48333 43.7117 8.42 43.815 8.36C43.9183 8.3 44.0517 8.25167 44.215 8.215C44.3783 8.17833 44.55 8.16 44.73 8.16C44.9967 8.16 45.2 8.21167 45.34 8.315C45.4833 8.415 45.58 8.55333 45.63 8.73C45.6833 8.90667 45.71 9.10667 45.71 9.33V9.88C45.71 9.94 45.7017 9.97667 45.685 9.99C45.6717 10.0033 45.6367 10.01 45.58 10.01H45.09C44.5167 10.01 44.0383 10.0917 43.655 10.255C43.2717 10.4183 42.9833 10.6333 42.79 10.9C42.5967 11.1667 42.5 11.4567 42.5 11.77ZM43.52 11.62C43.52 11.3633 43.57 11.1433 43.67 10.96C43.77 10.7767 43.935 10.6367 44.165 10.54C44.395 10.44 44.7033 10.39 45.09 10.39H45.61C45.6767 10.39 45.71 10.4233 45.71 10.49V11.09C45.71 11.5433 45.5933 11.8983 45.36 12.155C45.1267 12.4117 44.84 12.54 44.5 12.54C44.25 12.54 44.0233 12.47 43.82 12.33C43.62 12.19 43.52 11.9533 43.52 11.62ZM49.6066 10.4C49.6066 10.02 49.6666 9.665 49.7866 9.335C49.9066 9.00167 50.0766 8.73333 50.2966 8.53C50.52 8.32333 50.7833 8.22 51.0866 8.22C51.3666 8.22 51.6116 8.32333 51.8216 8.53C52.0316 8.73333 52.195 9.00167 52.3116 9.335C52.4283 9.665 52.4866 10.02 52.4866 10.4C52.4866 10.78 52.4283 11.1367 52.3116 11.47C52.195 11.8 52.0316 12.0683 51.8216 12.275C51.6116 12.4783 51.3666 12.58 51.0866 12.58C50.7833 12.58 50.52 12.4783 50.2966 12.275C50.0766 12.0683 49.9066 11.8 49.7866 11.47C49.6666 11.1367 49.6066 10.78 49.6066 10.4ZM47.8916 5.75H48.6266C48.68 5.75 48.7066 5.78333 48.7066 5.85V12.36C48.7066 12.3967 48.7016 12.4217 48.6916 12.435C48.6816 12.445 48.6583 12.45 48.6216 12.45H47.9016C47.8683 12.45 47.8433 12.455 47.8266 12.465C47.8133 12.475 47.8066 12.4967 47.8066 12.53V12.915C47.8066 12.955 47.8116 12.98 47.8216 12.99C47.835 12.9967 47.8616 13 47.9016 13H49.4816C49.535 13 49.5683 12.9833 49.5816 12.95C49.5983 12.9133 49.6066 12.87 49.6066 12.82V12.24C49.6066 12.12 49.6116 12.055 49.6216 12.045C49.6316 12.0317 49.6533 12.055 49.6866 12.115C49.8533 12.4283 50.07 12.6717 50.3366 12.845C50.6066 13.015 50.9166 13.1 51.2666 13.1C51.6633 13.1 52.03 12.9933 52.3666 12.78C52.7033 12.5667 52.9733 12.2583 53.1766 11.855C53.3833 11.4517 53.4866 10.9667 53.4866 10.4C53.4866 9.83333 53.3833 9.35 53.1766 8.95C52.9733 8.54667 52.7033 8.24 52.3666 8.03C52.03 7.81667 51.6633 7.71 51.2666 7.71C50.9066 7.71 50.59 7.80167 50.3166 7.985C50.0433 8.16833 49.8233 8.42333 49.6566 8.75C49.6366 8.79 49.6233 8.805 49.6166 8.795C49.61 8.78167 49.6066 8.73833 49.6066 8.665V5.265C49.6066 5.23833 49.6 5.22167 49.5866 5.215C49.5733 5.205 49.5533 5.2 49.5266 5.2H47.8616C47.8383 5.2 47.8233 5.20667 47.8166 5.22C47.81 5.23 47.8066 5.24833 47.8066 5.275V5.65C47.8066 5.68333 47.8116 5.70833 47.8216 5.725C47.835 5.74167 47.8583 5.75 47.8916 5.75ZM54.7264 5.75C54.8031 5.75 54.8531 5.76 54.8764 5.78C54.8997 5.8 54.9114 5.84667 54.9114 5.92V12.28C54.9114 12.36 54.9047 12.4083 54.8914 12.425C54.8814 12.4417 54.8364 12.45 54.7564 12.45H54.1364C54.0764 12.45 54.0397 12.4633 54.0264 12.49C54.0164 12.5167 54.0114 12.56 54.0114 12.62V12.82C54.0114 12.9 54.0247 12.95 54.0514 12.97C54.0814 12.99 54.1331 13 54.2064 13H56.4764C56.5631 13 56.6231 12.99 56.6564 12.97C56.6931 12.95 56.7114 12.8933 56.7114 12.8V12.58C56.7114 12.5267 56.6997 12.4917 56.6764 12.475C56.6564 12.4583 56.6231 12.45 56.5764 12.45H55.9664C55.8731 12.45 55.8231 12.435 55.8164 12.405C55.8131 12.375 55.8114 12.3167 55.8114 12.23V5.38C55.8114 5.29333 55.7947 5.24167 55.7614 5.225C55.7314 5.20833 55.6731 5.2 55.5864 5.2H54.2164C54.1531 5.2 54.1031 5.20833 54.0664 5.225C54.0297 5.23833 54.0114 5.28 54.0114 5.35V5.54C54.0114 5.61 54.0197 5.66333 54.0364 5.7C54.0531 5.73333 54.0997 5.75 54.1764 5.75H54.7264ZM57.2352 10.5C57.2352 10.9667 57.3235 11.3983 57.5002 11.795C57.6802 12.1883 57.9435 12.505 58.2902 12.745C58.6368 12.9817 59.0618 13.1 59.5652 13.1C59.9885 13.1 60.3485 13.0267 60.6452 12.88C60.9418 12.7333 61.1835 12.5317 61.3702 12.275C61.5568 12.015 61.6968 11.715 61.7902 11.375C61.8002 11.3383 61.7985 11.3117 61.7852 11.295C61.7718 11.2783 61.7402 11.27 61.6902 11.27H61.4002C61.3502 11.27 61.3185 11.2817 61.3052 11.305C61.2918 11.325 61.2785 11.3533 61.2652 11.39C61.1318 11.7567 60.9335 12.0517 60.6702 12.275C60.4102 12.4983 60.0818 12.61 59.6852 12.61C59.3418 12.61 59.0635 12.515 58.8502 12.325C58.6402 12.1317 58.4868 11.8767 58.3902 11.56C58.2935 11.2433 58.2452 10.9017 58.2452 10.535C58.2452 10.4783 58.2585 10.44 58.2852 10.42C58.3152 10.4 58.3568 10.39 58.4102 10.39H61.6252C61.6952 10.39 61.7418 10.3833 61.7652 10.37C61.7918 10.3533 61.8052 10.3117 61.8052 10.245C61.8052 10.0083 61.7818 9.77 61.7352 9.53C61.6885 9.28667 61.6135 9.05667 61.5102 8.84C61.4068 8.62 61.2702 8.425 61.1002 8.255C60.9335 8.08167 60.7285 7.94667 60.4852 7.85C60.2452 7.75 59.9618 7.7 59.6352 7.7C59.0985 7.7 58.6518 7.82333 58.2952 8.07C57.9418 8.31333 57.6768 8.64667 57.5002 9.07C57.3235 9.49 57.2352 9.96667 57.2352 10.5ZM58.4052 9.96C58.3452 9.96 58.3068 9.95167 58.2902 9.935C58.2735 9.91833 58.2652 9.885 58.2652 9.835C58.2652 9.57167 58.3152 9.31 58.4152 9.05C58.5152 8.79 58.6668 8.57333 58.8702 8.4C59.0735 8.22667 59.3285 8.14 59.6352 8.14C59.8385 8.14 60.0135 8.19833 60.1602 8.315C60.3068 8.43167 60.4285 8.58167 60.5252 8.765C60.6218 8.945 60.6935 9.135 60.7402 9.335C60.7868 9.53167 60.8102 9.71333 60.8102 9.88C60.8102 9.91333 60.8018 9.935 60.7852 9.945C60.7718 9.955 60.7318 9.96 60.6652 9.96H58.4052Z" fill="currentColor"/>
<path d="M5.5 11.77C5.5 12.19 5.64667 12.5167 5.94 12.75C6.23667 12.9833 6.60667 13.1 7.05 13.1C7.40333 13.1 7.68333 13.0567 7.89 12.97C8.09667 12.88 8.25333 12.7783 8.36 12.665C8.46667 12.5517 8.54667 12.4583 8.6 12.385C8.64667 12.3217 8.67833 12.29 8.695 12.29C8.715 12.29 8.73 12.32 8.74 12.38C8.75333 12.46 8.78 12.5567 8.82 12.67C8.86333 12.7833 8.945 12.8833 9.065 12.97C9.18833 13.0567 9.375 13.1 9.625 13.1H9.63C9.76667 13.1 9.89833 13.0767 10.025 13.03C10.155 12.9833 10.275 12.9117 10.385 12.815C10.4983 12.7183 10.5933 12.5967 10.67 12.45C10.6933 12.3967 10.6833 12.3567 10.64 12.33L10.46 12.22C10.4167 12.1867 10.3783 12.1983 10.345 12.255C10.2583 12.3917 10.175 12.48 10.095 12.52C10.015 12.56 9.94 12.58 9.87 12.58C9.8 12.58 9.73833 12.5567 9.685 12.51C9.635 12.4633 9.61 12.39 9.61 12.29V9.28C9.61 9.01 9.56667 8.755 9.48 8.515C9.39667 8.27167 9.23333 8.075 8.99 7.925C8.75 7.775 8.39667 7.7 7.93 7.7C7.67667 7.7 7.42333 7.73167 7.17 7.795C6.92 7.855 6.69167 7.94333 6.485 8.06C6.27833 8.17667 6.11167 8.32 5.985 8.49C5.86167 8.66 5.8 8.85333 5.8 9.07C5.8 9.29 5.86 9.44167 5.98 9.525C6.1 9.60833 6.23667 9.65 6.39 9.65C6.56 9.65 6.69333 9.59667 6.79 9.49C6.89 9.38 6.94 9.24 6.94 9.07C6.94 8.94 6.91667 8.85 6.87 8.8C6.82333 8.75 6.77667 8.71167 6.73 8.685C6.68333 8.655 6.66 8.61 6.66 8.55C6.66 8.48333 6.71167 8.42 6.815 8.36C6.91833 8.3 7.05167 8.25167 7.215 8.215C7.37833 8.17833 7.55 8.16 7.73 8.16C7.99667 8.16 8.2 8.21167 8.34 8.315C8.48333 8.415 8.58 8.55333 8.63 8.73C8.68333 8.90667 8.71 9.10667 8.71 9.33V9.88C8.71 9.94 8.70167 9.97667 8.685 9.99C8.67167 10.0033 8.63667 10.01 8.58 10.01H8.09C7.51667 10.01 7.03833 10.0917 6.655 10.255C6.27167 10.4183 5.98333 10.6333 5.79 10.9C5.59667 11.1667 5.5 11.4567 5.5 11.77ZM6.52 11.62C6.52 11.3633 6.57 11.1433 6.67 10.96C6.77 10.7767 6.935 10.6367 7.165 10.54C7.395 10.44 7.70333 10.39 8.09 10.39H8.61C8.67667 10.39 8.71 10.4233 8.71 10.49V11.09C8.71 11.5433 8.59333 11.8983 8.36 12.155C8.12667 12.4117 7.84 12.54 7.5 12.54C7.25 12.54 7.02333 12.47 6.82 12.33C6.62 12.19 6.52 11.9533 6.52 11.62ZM14.3866 9.355C14.4033 9.405 14.4166 9.44167 14.4266 9.465C14.44 9.48833 14.4816 9.5 14.5516 9.5H14.8316C14.8883 9.5 14.9266 9.49333 14.9466 9.48C14.9666 9.46333 14.9766 9.42833 14.9766 9.375V7.84C14.9766 7.74667 14.9333 7.7 14.8466 7.7H14.6216C14.5583 7.7 14.5166 7.70667 14.4966 7.72C14.4766 7.73333 14.4583 7.76333 14.4416 7.81L14.3116 8.205C14.285 8.295 14.265 8.33333 14.2516 8.32C14.2416 8.30667 14.21 8.27333 14.1566 8.22C14.0233 8.08333 13.8416 7.96 13.6116 7.85C13.3816 7.73667 13.1033 7.68 12.7766 7.68C12.4933 7.68 12.2333 7.73833 11.9966 7.855C11.7633 7.96833 11.5766 8.135 11.4366 8.355C11.2966 8.57167 11.2266 8.83667 11.2266 9.15C11.2266 9.5 11.3016 9.77833 11.4516 9.985C11.6016 10.1917 11.7933 10.3517 12.0266 10.465C12.2633 10.5783 12.5133 10.67 12.7766 10.74C13.04 10.8067 13.2883 10.8767 13.5216 10.95C13.7583 11.02 13.9516 11.1167 14.1016 11.24C14.2516 11.3633 14.3266 11.54 14.3266 11.77C14.3266 12.0233 14.2316 12.225 14.0416 12.375C13.855 12.525 13.5866 12.6 13.2366 12.6C12.96 12.6 12.72 12.5567 12.5166 12.47C12.3133 12.3833 12.1416 12.2517 12.0016 12.075C11.8616 11.8983 11.7483 11.675 11.6616 11.405C11.6483 11.365 11.6316 11.3333 11.6116 11.31C11.595 11.2833 11.5583 11.27 11.5016 11.27H11.1966C11.14 11.27 11.1016 11.2817 11.0816 11.305C11.065 11.325 11.0566 11.365 11.0566 11.425V12.965C11.0566 13.015 11.065 13.05 11.0816 13.07C11.0983 13.09 11.1316 13.1 11.1816 13.1H11.4116C11.465 13.1 11.505 13.0883 11.5316 13.065C11.5616 13.045 11.5833 13.0167 11.5966 12.98L11.7116 12.62C11.735 12.5533 11.7616 12.5217 11.7916 12.525C11.8216 12.525 11.8633 12.5483 11.9166 12.595C12.07 12.7283 12.2716 12.85 12.5216 12.96C12.775 13.0667 13.0633 13.12 13.3866 13.12C13.71 13.12 14.005 13.0567 14.2716 12.93C14.5416 12.8 14.7566 12.6133 14.9166 12.37C15.0766 12.1233 15.1566 11.8267 15.1566 11.48C15.1566 11.15 15.08 10.8883 14.9266 10.695C14.7766 10.4983 14.5816 10.3467 14.3416 10.24C14.105 10.13 13.8516 10.04 13.5816 9.97C13.315 9.89667 13.0616 9.82167 12.8216 9.745C12.5816 9.66833 12.385 9.565 12.2316 9.435C12.0816 9.305 12.0066 9.12333 12.0066 8.89C12.0066 8.68 12.0783 8.51167 12.2216 8.385C12.3683 8.255 12.5733 8.19 12.8366 8.19C13.1733 8.19 13.485 8.29167 13.7716 8.495C14.0616 8.69833 14.2666 8.985 14.3866 9.355ZM19.0309 12.025C19.0476 11.9817 19.0476 11.9517 19.0309 11.935C19.0176 11.9183 18.9909 11.9033 18.9509 11.89L18.7909 11.835C18.7376 11.815 18.7009 11.81 18.6809 11.82C18.6643 11.83 18.6443 11.86 18.6209 11.91C18.5343 12.1 18.4326 12.2467 18.3159 12.35C18.2026 12.45 18.0743 12.5 17.9309 12.5C17.7976 12.5 17.6909 12.455 17.6109 12.365C17.5309 12.275 17.4909 12.13 17.4909 11.93V8.515C17.4909 8.43833 17.5076 8.39167 17.5409 8.375C17.5743 8.35833 17.6259 8.35 17.6959 8.35H18.7959C18.8559 8.35 18.8976 8.345 18.9209 8.335C18.9476 8.32167 18.9609 8.285 18.9609 8.225V7.965C18.9609 7.895 18.9493 7.85 18.9259 7.83C18.9059 7.81 18.8626 7.8 18.7959 7.8H17.6859C17.6226 7.8 17.5743 7.79167 17.5409 7.775C17.5076 7.75833 17.4909 7.715 17.4909 7.645V6.545C17.4909 6.44833 17.4476 6.4 17.3609 6.4H17.0909C17.0176 6.4 16.9726 6.41 16.9559 6.43C16.9393 6.45 16.9243 6.48833 16.9109 6.545C16.8443 6.835 16.7826 7.065 16.7259 7.235C16.6693 7.405 16.6043 7.53 16.5309 7.61C16.4576 7.69 16.3643 7.74167 16.2509 7.765C16.1376 7.78833 15.9909 7.8 15.8109 7.8C15.7476 7.8 15.7059 7.80667 15.6859 7.82C15.6693 7.83 15.6609 7.86667 15.6609 7.93V8.2C15.6609 8.26667 15.6726 8.30833 15.6959 8.325C15.7193 8.34167 15.7659 8.35 15.8359 8.35H16.4309C16.4909 8.35 16.5326 8.36333 16.5559 8.39C16.5793 8.41667 16.5909 8.46 16.5909 8.52V12.14C16.5909 12.4133 16.6693 12.645 16.8259 12.835C16.9826 13.025 17.2409 13.12 17.6009 13.12C17.8609 13.12 18.0843 13.0717 18.2709 12.975C18.4609 12.875 18.6176 12.7417 18.7409 12.575C18.8676 12.4083 18.9643 12.225 19.0309 12.025ZM20.2656 6C20.2656 6.16333 20.324 6.305 20.4406 6.425C20.5606 6.54167 20.7023 6.6 20.8656 6.6C21.0323 6.6 21.174 6.54167 21.2906 6.425C21.4073 6.305 21.4656 6.16333 21.4656 6C21.4656 5.83333 21.4073 5.69167 21.2906 5.575C21.174 5.45833 21.0323 5.4 20.8656 5.4C20.7023 5.4 20.5606 5.45833 20.4406 5.575C20.324 5.69167 20.2656 5.83333 20.2656 6ZM20.3456 8.35C20.4256 8.35 20.4656 8.39 20.4656 8.47V12.31C20.4656 12.3633 20.4606 12.4 20.4506 12.42C20.4406 12.44 20.4073 12.45 20.3506 12.45H19.7306C19.6706 12.45 19.6273 12.4583 19.6006 12.475C19.5773 12.4917 19.5656 12.5333 19.5656 12.6V12.88C19.5656 12.9333 19.5773 12.9667 19.6006 12.98C19.624 12.9933 19.664 13 19.7206 13H22.1706C22.2173 13 22.244 12.9917 22.2506 12.975C22.2606 12.9583 22.2656 12.9267 22.2656 12.88V12.55C22.2656 12.5033 22.2573 12.475 22.2406 12.465C22.224 12.455 22.1923 12.45 22.1456 12.45H21.4706C21.4306 12.45 21.4023 12.4417 21.3856 12.425C21.3723 12.405 21.3656 12.3733 21.3656 12.33V7.905C21.3656 7.86167 21.359 7.83333 21.3456 7.82C21.3356 7.80667 21.3106 7.8 21.2706 7.8H19.6856C19.6056 7.8 19.5656 7.84333 19.5656 7.93V8.23C19.5656 8.28 19.5706 8.31333 19.5806 8.33C19.5906 8.34333 19.6206 8.35 19.6706 8.35H20.3456ZM23.6409 8.35C23.6809 8.35 23.7109 8.355 23.7309 8.365C23.7509 8.375 23.7609 8.39833 23.7609 8.435V12.31C23.7609 12.3733 23.7493 12.4133 23.7259 12.43C23.7026 12.4433 23.6576 12.45 23.5909 12.45H23.0409C22.9776 12.45 22.9309 12.46 22.9009 12.48C22.8743 12.4967 22.8609 12.54 22.8609 12.61V12.84C22.8609 12.9033 22.8693 12.9467 22.8859 12.97C22.9026 12.99 22.9409 13 23.0009 13H25.4209C25.4776 13 25.5143 12.99 25.5309 12.97C25.5509 12.95 25.5609 12.91 25.5609 12.85V12.62C25.5609 12.5467 25.5476 12.5 25.5209 12.48C25.4976 12.46 25.4526 12.45 25.3859 12.45H24.8709C24.7943 12.45 24.7393 12.435 24.7059 12.405C24.6759 12.375 24.6609 12.3217 24.6609 12.245V10.17C24.6609 9.82667 24.7259 9.51167 24.8559 9.225C24.9859 8.935 25.1709 8.70333 25.4109 8.53C25.6509 8.35667 25.9343 8.27 26.2609 8.27C26.5909 8.27 26.8309 8.37 26.9809 8.57C27.1343 8.76667 27.2109 9.05 27.2109 9.42V12.255C27.2109 12.3417 27.1976 12.3967 27.1709 12.42C27.1443 12.44 27.0909 12.45 27.0109 12.45H26.4359C26.3826 12.45 26.3476 12.46 26.3309 12.48C26.3176 12.5 26.3109 12.5383 26.3109 12.595V12.845C26.3109 12.8983 26.3159 12.9383 26.3259 12.965C26.3359 12.9883 26.3676 13 26.4209 13H28.8559C28.9126 13 28.9526 12.995 28.9759 12.985C28.9993 12.975 29.0109 12.9433 29.0109 12.89V12.6C29.0109 12.5433 29.0026 12.505 28.9859 12.485C28.9726 12.4617 28.9376 12.45 28.8809 12.45H28.2909C28.2043 12.45 28.1526 12.435 28.1359 12.405C28.1193 12.3717 28.1109 12.3117 28.1109 12.225V9.31C28.1109 8.95333 28.0643 8.65667 27.9709 8.42C27.8776 8.18 27.7126 8 27.4759 7.88C27.2426 7.76 26.9143 7.7 26.4909 7.7C26.0576 7.7 25.7009 7.79167 25.4209 7.975C25.1409 8.155 24.9209 8.37833 24.7609 8.645C24.7276 8.69833 24.7026 8.73 24.6859 8.74C24.6693 8.75 24.6609 8.69 24.6609 8.56V7.975C24.6609 7.92833 24.6493 7.88833 24.6259 7.855C24.6026 7.81833 24.5626 7.8 24.5059 7.8H22.9559C22.9193 7.8 22.8943 7.81 22.8809 7.83C22.8676 7.84667 22.8609 7.875 22.8609 7.915V8.225C22.8609 8.26833 22.8676 8.3 22.8809 8.32C22.8943 8.34 22.9226 8.35 22.9659 8.35H23.6409ZM30.5668 9.55C30.5668 9.30333 30.5985 9.07 30.6618 8.85C30.7251 8.62667 30.8318 8.44667 30.9818 8.31C31.1351 8.17 31.3435 8.1 31.6068 8.1C31.8701 8.1 32.0768 8.17 32.2268 8.31C32.3801 8.44667 32.4885 8.62667 32.5518 8.85C32.6151 9.07 32.6468 9.30333 32.6468 9.55C32.6468 9.79667 32.6151 10.0317 32.5518 10.255C32.4885 10.475 32.3801 10.655 32.2268 10.795C32.0768 10.9317 31.8701 11 31.6068 11C31.3435 11 31.1351 10.9317 30.9818 10.795C30.8318 10.655 30.7251 10.475 30.6618 10.255C30.5985 10.0317 30.5668 9.79667 30.5668 9.55ZM29.6168 9.55C29.6168 9.89 29.6868 10.195 29.8268 10.465C29.9701 10.7317 30.1718 10.9433 30.4318 11.1C30.5051 11.1433 30.5468 11.17 30.5568 11.18C30.5701 11.19 30.5318 11.2133 30.4418 11.25C30.2085 11.3533 30.0235 11.4833 29.8868 11.64C29.7535 11.7967 29.6868 11.97 29.6868 12.16C29.6868 12.37 29.7285 12.5367 29.8118 12.66C29.8985 12.78 30.0135 12.8717 30.1568 12.935C30.2235 12.965 30.2618 12.9833 30.2718 12.99C30.2818 12.9933 30.2535 13.0133 30.1868 13.05C29.9835 13.1633 29.7951 13.3317 29.6218 13.555C29.4518 13.7783 29.3668 14.0433 29.3668 14.35C29.3668 14.7733 29.5801 15.0867 30.0068 15.29C30.4335 15.4967 31.0035 15.6 31.7168 15.6C32.2501 15.6 32.7101 15.5283 33.0968 15.385C33.4868 15.2417 33.7868 15.0367 33.9968 14.77C34.2101 14.5067 34.3168 14.19 34.3168 13.82C34.3168 13.48 34.2635 13.2083 34.1568 13.005C34.0535 12.8017 33.9135 12.65 33.7368 12.55C33.5601 12.45 33.3601 12.3833 33.1368 12.35C32.9135 12.3167 32.6835 12.3 32.4468 12.3C32.3768 12.3 32.2918 12.3017 32.1918 12.305C32.0918 12.305 31.9868 12.305 31.8768 12.305C31.7701 12.305 31.6685 12.3067 31.5718 12.31C31.4785 12.31 31.4001 12.31 31.3368 12.31C31.0635 12.31 30.8335 12.295 30.6468 12.265C30.4601 12.2317 30.3668 12.1233 30.3668 11.94C30.3668 11.8433 30.4235 11.7467 30.5368 11.65C30.6535 11.5533 30.7885 11.47 30.9418 11.4C30.9918 11.3767 31.0351 11.3633 31.0718 11.36C31.1085 11.3567 31.1585 11.36 31.2218 11.37C31.2851 11.38 31.3485 11.3883 31.4118 11.395C31.4751 11.3983 31.5401 11.4 31.6068 11.4C32.0101 11.4 32.3601 11.3233 32.6568 11.17C32.9568 11.0133 33.1885 10.7967 33.3518 10.52C33.5151 10.24 33.5968 9.91667 33.5968 9.55C33.5968 9.2 33.5185 8.88333 33.3618 8.6C33.3451 8.57 33.3401 8.54833 33.3468 8.535C33.3535 8.51833 33.3651 8.49667 33.3818 8.47C33.4851 8.32 33.5968 8.21667 33.7168 8.16C33.8401 8.1 33.9601 8.07 34.0768 8.07C34.2035 8.07 34.2668 8.12 34.2668 8.22C34.2668 8.27333 34.2501 8.31833 34.2168 8.355C34.1868 8.38833 34.1551 8.43167 34.1218 8.485C34.0918 8.535 34.0768 8.61333 34.0768 8.72C34.0768 8.84333 34.1218 8.94833 34.2118 9.035C34.3018 9.11833 34.4168 9.16 34.5568 9.16C34.7068 9.16 34.8318 9.11167 34.9318 9.015C35.0351 8.915 35.0868 8.78 35.0868 8.61C35.0868 8.43667 35.0485 8.28167 34.9718 8.145C34.8985 8.00833 34.7851 7.9 34.6318 7.82C34.4785 7.74 34.2835 7.7 34.0468 7.7C33.9235 7.7 33.7785 7.73833 33.6118 7.815C33.4451 7.88833 33.2885 8.00833 33.1418 8.175C33.1151 8.205 33.0968 8.22167 33.0868 8.225C33.0801 8.22833 33.0618 8.21667 33.0318 8.19C32.8585 8.03333 32.6518 7.91333 32.4118 7.83C32.1718 7.74333 31.9035 7.7 31.6068 7.7C31.2035 7.7 30.8518 7.77833 30.5518 7.935C30.2551 8.08833 30.0251 8.305 29.8618 8.585C29.6985 8.86167 29.6168 9.18333 29.6168 9.55ZM33.6068 14.07C33.6068 14.31 33.5201 14.5083 33.3468 14.665C33.1768 14.8217 32.9585 14.9383 32.6918 15.015C32.4285 15.0917 32.1568 15.13 31.8768 15.13C31.3468 15.13 30.9535 15.03 30.6968 14.83C30.4435 14.63 30.3168 14.36 30.3168 14.02C30.3168 13.91 30.3301 13.77 30.3568 13.6C30.3835 13.43 30.4701 13.2683 30.6168 13.115C30.6368 13.0917 30.6535 13.0767 30.6668 13.07C30.6835 13.0633 30.7118 13.0633 30.7518 13.07C30.8685 13.08 30.9868 13.085 31.1068 13.085C31.2301 13.0883 31.3535 13.09 31.4768 13.09C31.5501 13.09 31.6635 13.09 31.8168 13.09C31.9735 13.09 32.1285 13.09 32.2818 13.09C32.4351 13.09 32.5468 13.09 32.6168 13.09C32.9435 13.09 33.1901 13.185 33.3568 13.375C33.5235 13.5683 33.6068 13.8 33.6068 14.07Z" fill="currentColor"/>
</svg>
