<svg viewBox="0 0 16 16" fill="none" xmlns="http://www.w3.org/2000/svg">
  <path
    d="M11.1428 7.58714C11.9763 6.75365 12.4446 5.62318 12.4446 4.44444C12.4446 3.2657 11.9763 2.13524 11.1428 1.30175C10.3093 0.468253 9.17885 0 8.00011 0C6.82137 0 5.69091 0.468253 4.85741 1.30175C4.02392 2.13524 3.55566 3.2657 3.55566 4.44444C3.55566 5.62318 4.02392 6.75365 4.85741 7.58714C5.69091 8.42064 6.82137 8.88889 8.00011 8.88889C9.17885 8.88889 10.3093 8.42064 11.1428 7.58714Z"
    fill="currentColor"
  />
  <path
    d="M16 12.0282C16 10.6237 15.1571 10.1497 13.6569 9.15659C12.1566 8.16347 10.1217 10.2533 8 10.2533C5.87827 10.2533 3.50029 8.16342 2 9.15653C0.499709 10.1496 0 10.6237 0 12.0282V15.9999H16V12.0282Z"
    fill="currentColor"
  />
</svg>
